<?xml version="1.0" standalone="no"?><!DOCTYPE svg PUBLIC "-//W3C//DTD SVG 1.1//EN" "http://www.w3.org/Graphics/SVG/1.1/DTD/svg11.dtd"><svg t="1701525279514" class="icon" viewBox="0 0 1024 1024" version="1.1" xmlns="http://www.w3.org/2000/svg" p-id="17771" xmlns:xlink="http://www.w3.org/1999/xlink" width="200" height="200"><path d="M251.402449 868.414694a240.953469 240.953469 0 1 1 0-481.802449c5.955918 0 11.702857 0 17.449796 0.626939a20.897959 20.897959 0 0 1-3.343674 41.795918h-14.210612a199.157551 199.157551 0 1 0 0 398.210612 20.897959 20.897959 0 1 1 0 41.795919z" fill="#1296db" p-id="17772"></path><path d="M562.364082 868.414694H243.147755a20.897959 20.897959 0 0 1 0-41.795918h319.216327a20.897959 20.897959 0 0 1 0 41.795918zM787.435102 733.100408h-124.342857a20.897959 20.897959 0 0 1-20.897959-20.897959v-124.342857a20.897959 20.897959 0 0 1 20.897959-20.897959h124.342857a20.897959 20.897959 0 0 1 20.897959 20.897959v124.342857a20.897959 20.897959 0 0 1-20.897959 20.897959z m-103.444898-41.795918h82.546939v-82.546939h-82.546939zM787.435102 925.675102h-124.342857a20.897959 20.897959 0 0 1-20.897959-20.897959v-124.342857a20.897959 20.897959 0 0 1 20.897959-20.897959h124.342857a20.897959 20.897959 0 0 1 20.897959 20.897959v124.342857a20.897959 20.897959 0 0 1-20.897959 20.897959z m-103.444898-41.795918h82.546939v-82.546939h-82.546939zM923.062857 740.519184a20.897959 20.897959 0 0 1-14.733061-6.164898l-69.590204-69.590204a20.897959 20.897959 0 0 1 0-29.570613l69.590204-69.590204a20.897959 20.897959 0 0 1 29.570612 0l69.590204 69.590204a20.897959 20.897959 0 0 1 0 29.570613l-69.590204 69.590204a20.897959 20.897959 0 0 1-14.837551 6.164898z m-40.124081-90.488164L923.062857 689.632653l40.019592-40.019592-40.019592-40.019592zM985.234286 925.675102h-124.342857a20.897959 20.897959 0 0 1-20.89796-20.897959v-124.342857a20.897959 20.897959 0 0 1 20.89796-20.897959h124.342857a20.897959 20.897959 0 0 1 20.897959 20.897959v124.342857a20.897959 20.897959 0 0 1-20.897959 20.897959z m-103.444898-41.795918h82.546939v-82.546939h-82.546939zM347.324082 379.506939h-1.880817a10.44898 10.44898 0 0 1-8.359183-12.120817A307.617959 307.617959 0 0 1 639.79102 114.938776a10.44898 10.44898 0 0 1 0 20.897959 286.72 286.72 0 0 0-282.122449 235.102041 10.44898 10.44898 0 0 1-10.344489 8.568163z" fill="#1296db" p-id="17773"></path><path d="M957.44 522.44898a20.897959 20.897959 0 0 1-20.062041-26.853878A329.142857 329.142857 0 1 0 292.571429 402.285714a20.897959 20.897959 0 0 1-41.795919 0 370.938776 370.938776 0 1 1 726.726531 105.325715A20.897959 20.897959 0 0 1 957.44 522.44898z" fill="#1296db" p-id="17774"></path><path d="M997.564082 528.300408a20.897959 20.897959 0 0 1-6.582858-1.044898 94.040816 94.040816 0 0 0-30.61551-4.80653h-1.149387a20.897959 20.897959 0 0 1-3.343674-41.795919 123.506939 123.506939 0 0 1 48.378776 6.687347 20.897959 20.897959 0 0 1-6.582858 40.751021z" fill="#1296db" p-id="17775"></path></svg>