<?xml version="1.0" standalone="no"?><!DOCTYPE svg PUBLIC "-//W3C//DTD SVG 1.1//EN" "http://www.w3.org/Graphics/SVG/1.1/DTD/svg11.dtd"><svg t="1701524572503" class="icon" viewBox="0 0 1024 1024" version="1.1" xmlns="http://www.w3.org/2000/svg" p-id="15800" xmlns:xlink="http://www.w3.org/1999/xlink" width="200" height="200"><path d="M38.31 15.963h946.582c12.77 0 22.347 10.375 22.347 22.347v946.582c0 12.77-10.375 22.347-22.347 22.347H38.31c-12.77 0-22.347-10.375-22.347-22.347V38.31c0-11.972 10.375-22.347 22.347-22.347z" fill="#7CB0F1" p-id="15801"></path><path d="M984.892 1024H38.31C16.76 1024 0 1006.441 0 985.69V38.31C0 17.56 17.559 0 38.31 0h946.582c21.55 0 38.31 17.559 38.31 38.31v946.582c0.798 21.55-16.76 39.108-38.31 39.108zM38.31 31.925c-3.192 0-6.385 3.193-6.385 6.385v946.582c0 3.99 3.193 6.385 6.385 6.385h946.582c3.99 0 6.385-3.193 6.385-6.385V38.31c0-3.99-3.193-6.385-6.385-6.385H38.31z" fill="#131313" p-id="15802"></path><path d="M79.813 77.419h865.97v865.97H79.813z" fill="#F3F3F3" p-id="15803"></path><path d="M945.783 960.15H79.813c-8.78 0-15.963-7.184-15.963-15.963V77.42c0-8.78 7.184-15.963 15.963-15.963h865.97c8.78 0 15.963 7.183 15.963 15.963v865.97c0 9.577-7.183 16.76-15.963 16.76zM95.776 928.224H929.82V93.381H95.776v834.843z" fill="#131313" p-id="15804"></path><path d="M547.517 247.42H537.14v240.237h241.035v-8.78c0.798-127.7-102.959-231.457-230.66-231.457z" fill="#FB7E7E" p-id="15805"></path><path d="M778.974 503.62H537.94c-8.78 0-15.962-7.184-15.962-15.963V247.42c0-8.78 7.183-15.962 15.962-15.962h10.376c136.48 0 247.42 111.738 246.622 248.218v8.78c0 7.98-7.183 15.164-15.963 15.164z m-225.072-31.926h209.11c-3.991-113.334-95.776-205.119-209.11-208.311v208.311z" fill="#131313" p-id="15806"></path><path d="M484.465 273.758c-142.866 6.385-253.007 126.903-246.622 268.97 2.394 63.052 28.732 123.71 72.63 168.405l173.992-173.992V273.758z" fill="#7CB0F1" p-id="15807"></path><path d="M310.472 727.894c-3.99 0-8.78-1.596-11.173-4.789-47.09-47.888-74.227-111.738-77.419-179.579-6.385-150.846 110.94-279.345 261.786-285.73 4.79 0 8.78 1.596 11.972 4.789 3.193 3.192 4.79 7.183 4.79 11.173V537.94c0 3.99-1.597 7.981-4.79 11.174L321.646 723.105c-2.394 3.193-6.385 4.789-11.174 4.789z m158.03-436.577C343.196 305.684 248.218 414.23 253.805 541.93c2.395 54.273 22.348 105.353 57.465 146.058l157.232-157.232V291.317z" fill="#131313" p-id="15808"></path><path d="M495.638 790.148c138.875 0 252.21-110.142 257.796-248.218h-268.97v-3.193L310.473 711.931c48.686 49.484 114.931 78.217 185.166 78.217z" fill="#FFD28B" p-id="15809"></path><path d="M495.638 806.11c-73.428 0-145.26-30.328-196.34-83.005-6.385-6.385-5.586-15.962 0-22.347l173.993-173.993c4.789-4.788 11.174-5.587 17.559-3.192 1.596 0.798 2.394 1.596 3.99 2.394h259.392c3.99 0 8.78 1.597 11.174 4.789s4.789 7.183 4.789 11.972c-6.385 147.654-126.903 263.383-274.557 263.383z m-162.02-94.977c43.897 39.907 102.16 62.254 162.02 63.053 125.307 0 227.467-94.18 241.035-216.294H487.657L333.618 711.133zM331.224 197.138H178.78c-8.78 0-15.963-7.183-15.963-15.963s7.184-15.962 15.963-15.962h152.443c8.78 0 15.962 7.183 15.962 15.962s-7.183 15.963-15.962 15.963zM331.224 263.383H214.697c-8.78 0-15.963-7.183-15.963-15.963s7.183-15.962 15.963-15.962h116.527c8.78 0 15.962 7.183 15.962 15.962s-7.183 15.963-15.962 15.963zM844.42 806.11H682.4c-8.779 0-15.962-7.182-15.962-15.962s7.183-15.962 15.963-15.962h162.02c8.78 0 15.962 7.183 15.962 15.962s-7.183 15.963-15.962 15.963zM814.092 868.365H682.401c-8.78 0-15.963-7.183-15.963-15.963s7.183-15.962 15.963-15.962h131.691c8.78 0 15.963 7.183 15.963 15.962s-7.184 15.963-15.963 15.963zM856.393 197.138H682.4c-8.78 0-15.963-7.183-15.963-15.963s7.183-15.962 15.963-15.962h173.992c8.78 0 15.962 7.183 15.962 15.962s-7.183 15.963-15.962 15.963z" fill="#131313" p-id="15810"></path></svg>