<?xml version="1.0" standalone="no"?><!DOCTYPE svg PUBLIC "-//W3C//DTD SVG 1.1//EN" "http://www.w3.org/Graphics/SVG/1.1/DTD/svg11.dtd"><svg t="1701524419229" class="icon" viewBox="0 0 1024 1024" version="1.1" xmlns="http://www.w3.org/2000/svg" p-id="13054" xmlns:xlink="http://www.w3.org/1999/xlink" width="200" height="200"><path d="M806.5 161h-591a34 34 0 0 0-34 34v659a34 34 0 0 0 34 34h591a34 34 0 0 0 34-34V195a34 34 0 0 0-34-34zM284.34 292.84A36.86 36.86 0 0 1 310.5 282h401a37 37 0 0 1 0 74h-401a37 37 0 0 1-26.16-63.16z m187.9 360.32c-5.41 6.7-12.88 10.84-21.14 10.84H303.4c-16.51 0-29.9-16.57-29.9-37a41.7 41.7 0 0 1 8.76-26.16c5.41-6.7 12.88-10.84 21.14-10.84h147.7c16.51 0 29.9 16.57 29.9 37a41.7 41.7 0 0 1-8.76 26.16zM310.5 510a37 37 0 0 1 0-74H591a37 37 0 0 1 0 74z" fill="#005EB8" p-id="13055"></path><path d="M595.79 888l-55.33 40.6a18.86 18.86 0 0 1-20.67 1.18 19 19 0 0 1-6.62-26.39l9.54-15.39zM865.92 455.12l-25.42 32.2v-59.63a18.93 18.93 0 0 1 25.42 27.43z" fill="#FBE038" p-id="13056"></path><path d="M840.5 487.32L725.14 633.47l96.63 55.79a18.95 18.95 0 0 1 1.71 31.67L595.79 888h-73.08l110.15-177.57-84.39-48.72a18.89 18.89 0 0 1-1.3-32l293.12-201.88 0.21-0.14z" fill="#FABA1E" p-id="13057"></path></svg>